<svg xmlns="http://www.w3.org/2000/svg" viewBox="0 0 800 800">
  <path d="M506.38845,483.17945,281.64,258.431a19.97951,19.97951,0,0,0-29.89075,1.80352,284.50469,284.50469,0,0,0-44.22784,81.63418,19.94085,19.94085,0,0,0,4.79778,20.58463L340.42739,490.56209a122.58494,122.58494,0,0,0,165.3848,7.29695A9.978,9.978,0,0,0,506.38845,483.17945Z" fill="#9acf65"/>
  <path d="M506.38845,483.17945,281.64,258.431a19.97951,19.97951,0,0,0-29.89075,1.80352,284.50469,284.50469,0,0,0-44.22784,81.63418,19.94085,19.94085,0,0,0,4.79778,20.58463L340.42739,490.56209a122.58494,122.58494,0,0,0,165.3848,7.29695A9.978,9.978,0,0,0,506.38845,483.17945Z" fill="#8be8e8" opacity="0.7"/>
  <g>
    <path d="M210.46818,399.61442a9.99873,9.99873,0,0,0-17.01637,5.982,285.865,285.865,0,0,0,82.27988,232.62587c1.08728,1.08655,2.222,2.09241,3.32239,3.15784a122.5367,122.5367,0,0,0,163.68828,5.75221,9.97428,9.97428,0,0,0,.57045-14.67323Z" fill="#8be8e8"/>
    <path d="M569.46562,333.9008,405.16821,169.60392a19.9408,19.9408,0,0,0-20.58483-4.79771,284.50826,284.50826,0,0,0-81.63372,44.22819,19.97952,19.97952,0,0,0-1.80342,29.89068L403.50467,341.28351a122.58468,122.58468,0,0,0,165.38464,7.29694A9.978,9.978,0,0,0,569.46562,333.9008Z" fill="#9acf65"/>
    <path d="M569.46562,333.9008,405.16821,169.60392a19.9408,19.9408,0,0,0-20.58483-4.79771,284.50826,284.50826,0,0,0-81.63372,44.22819,19.97952,19.97952,0,0,0-1.80342,29.89068L403.50467,341.28351a122.58468,122.58468,0,0,0,165.38464,7.29694A9.978,9.978,0,0,0,569.46562,333.9008Z" fill="#8be8e8" opacity="0.3"/>
    <circle cx="546.83604" cy="185.58747" r="61.28636" transform="translate(28.93441 441.02878) rotate(-45)" fill="#9acf65"/>
  </g>
</svg>
