<svg xmlns="http://www.w3.org/2000/svg" viewBox="0 0 1000 300">
  <g>
    <path d="M328.59894,126.5974q-1.44156-2.78046-7.97921-2.78046-6.54051,0-8.29006,2.78046-5.86892,7.41527-23.37583,30.58507l-23.37869-30.68774-.616-.6174a6.199,6.199,0,0,0-2.62647-1.39023,15.20846,15.20846,0,0,0-4.7881-.67016q-6.48917,0-8.03339,2.67779a8.22226,8.22226,0,0,0-.97815,2.72913,29.99948,29.99948,0,0,0-.154,3.55186V189.9306a32.657,32.657,0,0,0,.154,3.70728,7.28253,7.28253,0,0,0,.97815,2.6778q1.54422,2.78046,7.82522,2.78046,6.48916,0,8.03339-2.78046a7.3461,7.3461,0,0,0,.97815-2.62646,29.97954,29.97954,0,0,0,.154-3.55329V155.43149q.51332.61812,6.5904,9.01155,6.07852,8.39486,8.13606,10.96785l.82416,1.13215a9.45808,9.45808,0,0,0,2.72913,2.11172,8.63055,8.63055,0,0,0,8.54671-.10409,9.85834,9.85834,0,0,0,2.5238-1.85364q.51331-.66731,1.85364-2.41971,1.3389-1.74956,6.28242-8.70213,4.94067-6.95116,7.51723-10.1437V189.9306a20.54367,20.54367,0,0,0,.51331,5.3556,4.63952,4.63952,0,0,0,1.443,2.059,8.13333,8.13333,0,0,0,2.6778,1.23623,17.388,17.388,0,0,0,4.73676.51474,16.67311,16.67311,0,0,0,4.9421-.61883q3.914-1.23409,3.91546-8.34138V132.98248a30.66452,30.66452,0,0,0-.15685-3.60462A8.18088,8.18088,0,0,0,328.59894,126.5974Z" fill="#666"/>
    <path d="M374.32113,122.78745a34.55571,34.55571,0,0,0-13.79679,2.88313,38.55693,38.55693,0,0,0-11.84334,7.9293,37.1271,37.1271,0,0,0-8.23872,12.51208,41.48533,41.48533,0,0,0-3.08845,16.014,37.44421,37.44421,0,0,0,10.965,26.98046A35.672,35.672,0,0,0,374.94,200.435a34.63754,34.63754,0,0,0,26.36448-11.48259,39.29779,39.29779,0,0,0,10.70834-27.80461q0-16.32131-11.22451-27.34121A36.53743,36.53743,0,0,0,374.32113,122.78745Zm13.59432,53.85825a18.6995,18.6995,0,0,1-13.18082,5.56092q-7.31475,0-13.23214-5.71491-5.92452-5.71493-5.9231-14.88046,0-9.16484,5.87177-14.88046a18.44165,18.44165,0,0,1,13.18081-5.71634,18.71462,18.71462,0,0,1,13.23214,5.66358q5.92025,5.66573,5.9231,15.03588Q393.78721,171.08621,387.91545,176.6457Z" fill="#666"/>
    <path d="M461.93846,157.38922a53.25143,53.25143,0,0,0-8.54957-3.1412,76.86651,76.86651,0,0,0-8.54671-1.905,16.2099,16.2099,0,0,1-6.53907-2.36838,5.30243,5.30243,0,0,1-2.62362-4.58277,5.15311,5.15311,0,0,1,2.213-4.42878,9.26161,9.26161,0,0,1,5.56092-1.59555,10.31953,10.31953,0,0,1,5.50959,1.3389,16.59125,16.59125,0,0,1,1.597,1.33747,11.927,11.927,0,0,0,1.18063,1.03091,10.563,10.563,0,0,0,5.3556,2.059q3.713,0,7.20923-5.14885,2.47248-3.6039,2.46962-5.66358,0-2.05968-3.18826-5.04619l-2.578-1.9563q-1.9506-1.64689-7.04953-3.24387a37.63472,37.63472,0,0,0-11.2787-1.597q-11.63943,0-18.38241,6.74582a21.647,21.647,0,0,0-6.7444,15.80728A22.71878,22.71878,0,0,0,420.1802,156.307a17.05026,17.05026,0,0,0,6.53908,6.84849,59.66395,59.66395,0,0,0,16.88809,6.07567,19.24566,19.24566,0,0,1,6.53623,2.317q2.62645,1.59769,2.62931,3.96536,0,7.82593-9.57619,7.82665a9.79123,9.79123,0,0,1-4.94494-1.597,15.63942,15.63942,0,0,1-4.11794-3.34653q-5.15027-5.14814-8.03339-5.14885a7.82046,7.82046,0,0,0-5.45826,2.47105q-4.42736,4.32469-4.42593,6.95115,0,2.62647,2.675,5.92167l.92682,1.13358q2.16448,3.08844,7.62274,6.38365a24.69806,24.69806,0,0,0,7.00106,2.93588,34.59969,34.59969,0,0,0,9.16554,1.18348A31.96375,31.96375,0,0,0,461.42514,194.77a20.38669,20.38669,0,0,0,6.99821-7.878,24.98451,24.98451,0,0,0,2.68065-11.79058,22.36767,22.36767,0,0,0-2.62932-11.27584A15.10285,15.10285,0,0,0,461.93846,157.38922Z" fill="#666"/>
    <path d="M521.29489,157.38922a53.21692,53.21692,0,0,0-8.54671-3.1412,77.15116,77.15116,0,0,0-8.54671-1.905,16.20989,16.20989,0,0,1-6.53908-2.36838,5.29922,5.29922,0,0,1-2.62646-4.58277,5.1531,5.1531,0,0,1,2.213-4.42878,9.27358,9.27358,0,0,1,5.56092-1.59555,10.31265,10.31265,0,0,1,5.50959,1.3389,16.25,16.25,0,0,1,1.597,1.33747,11.84,11.84,0,0,0,1.18347,1.03091,10.563,10.563,0,0,0,5.3556,2.059q3.7087,0,7.20924-5.14885,2.47246-3.6039,2.46962-5.66358,0-2.05968-3.19112-5.04619l-2.57513-1.9563q-1.95487-1.64689-7.05239-3.24387a37.63465,37.63465,0,0,0-11.27869-1.597q-11.63517,0-18.37957,6.74582a21.63888,21.63888,0,0,0-6.74725,15.80728,22.71868,22.71868,0,0,0,2.62647,11.27584,17.0503,17.0503,0,0,0,6.53907,6.84849,59.66386,59.66386,0,0,0,16.8881,6.07567,19.26235,19.26235,0,0,1,6.53907,2.317q2.62647,1.59769,2.62647,3.96536,0,7.82593-9.5762,7.82665a9.77383,9.77383,0,0,1-4.94209-1.597,15.61049,15.61049,0,0,1-4.12078-3.34653q-5.15028-5.14814-8.0334-5.14885a7.80925,7.80925,0,0,0-5.45541,2.47105q-4.43162,4.32469-4.42877,6.95115,0,2.62647,2.6778,5.92167l.92682,1.13358q2.1602,3.08844,7.61989,6.38365a24.7337,24.7337,0,0,0,7.00106,2.93588,34.63051,34.63051,0,0,0,9.16554,1.18348A31.95694,31.95694,0,0,0,520.78157,194.77a20.37037,20.37037,0,0,0,7.00106-7.878,24.9837,24.9837,0,0,0,2.6778-11.79058,22.3676,22.3676,0,0,0-2.62647-11.27584A15.09334,15.09334,0,0,0,521.29489,157.38922Z" fill="#666"/>
    <path d="M603.55377,130.30468q-8.54671-6.58969-17.60959-6.59041H563.90582q-6.59184,0-8.03055,2.78046a8.22226,8.22226,0,0,0-.97815,2.72913,29.86774,29.86774,0,0,0-.15684,3.55186V189.9306a17.25352,17.25352,0,0,0,.61883,5.3556q1.23622,3.80924,8.444,3.80994,6.59184,0,8.0334-2.78046a8.27605,8.27605,0,0,0,.97815-2.72913,29.99644,29.99644,0,0,0,.154-3.55328V178.39668h12.87283q9.16269,0,17.71225-6.59041a23.786,23.786,0,0,0,6.90125-8.59947,26.92581,26.92581,0,0,0,2.6778-12.1,27.25535,27.25535,0,0,0-2.6778-12.15133A23.70022,23.70022,0,0,0,603.55377,130.30468ZM592.02127,157.904a9.995,9.995,0,0,1-6.07709,2.26572H572.96869V141.94127h12.87283a9.98437,9.98437,0,0,1,6.17975,2.317,8.139,8.139,0,0,1,2.98579,6.84849Q595.00706,155.639,592.02127,157.904Z" fill="#666"/>
    <path d="M628.441,123.71427q-6.59184,0-8.03055,2.78046a8.22271,8.22271,0,0,0-.97815,2.72913,29.86774,29.86774,0,0,0-.15684,3.55186v57.25755a16.2233,16.2233,0,0,0,.61883,5.25293q1.23622,3.914,8.444,3.91261,6.59184,0,8.0334-2.78046a8.31628,8.31628,0,0,0,.97815-2.6778,29.80846,29.80846,0,0,0,.154-3.60462V132.87981a20.55093,20.55093,0,0,0-.51332-5.35559Q635.64743,123.715,628.441,123.71427Z" fill="#666"/>
    <path d="M704.081,153.68194H685.95524a11.11324,11.11324,0,0,0-4.94209.92682,3.38623,3.38623,0,0,0-1.69965,2.26572,16.60674,16.60674,0,0,0-.46484,4.376,17.89789,17.89789,0,0,0,.41351,4.32469,3.84172,3.84172,0,0,0,1.751,2.42114,9.12414,9.12414,0,0,0,4.53143.82273h8.13321V180.045a26.72659,26.72659,0,0,1-10.195,1.85364q-7.82808,0-14.005-6.23108A20.69767,20.69767,0,0,1,663.298,160.529q0-8.906,6.07709-14.417a20.109,20.109,0,0,1,13.90231-5.50959,18.388,18.388,0,0,1,10.29769,2.83179q4.32468,2.83394,6.28241,2.83322,3.29379,0,7.3119-5.45826,2.36553-3.29592,2.367-5.819,0-2.52166-2.78046-4.58277-10.80959-8.03126-22.96233-8.032A38.15069,38.15069,0,0,0,656.605,133.34322q-11.53249,10.96572-11.5325,27.34121A38.52967,38.52967,0,0,0,656.39965,188.643q11.32716,11.586,26.67246,11.58525,17.29875,0,25.951-8.95879a8.99392,8.99392,0,0,0,2.88313-6.28241V162.33132a12.76376,12.76376,0,0,0-1.02948-5.76625Q709.64049,153.88727,704.081,153.68194Z" fill="#666"/>
    <path d="M772.76837,184.73043a11.72266,11.72266,0,0,0-4.94494-.77283H739.81349V132.87981a20.55093,20.55093,0,0,0-.51332-5.35559q-1.34317-3.80924-8.54956-3.81-6.59184,0-8.03054,2.78046a8.22254,8.22254,0,0,0-.97816,2.72913,29.86774,29.86774,0,0,0-.15684,3.55186v57.25755a16.2233,16.2233,0,0,0,.61883,5.25293q1.23623,3.914,8.444,3.91261h37.07282a11.59676,11.59676,0,0,0,5.3556-1.02949,3.55558,3.55558,0,0,0,1.751-2.26572,18.81411,18.81411,0,0,0,0-8.75346A3.91068,3.91068,0,0,0,772.76837,184.73043Z" fill="#666"/>
    <path d="M830.44512,141.94127a17.22459,17.22459,0,0,0,5.3556-.61741q3.80709-1.23624,3.80994-8.44405,0-6.58969-2.78046-8.03339a8.24354,8.24354,0,0,0-2.72913-.97815,30.0106,30.0106,0,0,0-3.55329-.154H789.97586q-5.46254,0-7.41456,1.905-1.95916,1.90569-1.95916,7.15648v57.25755a16.22358,16.22358,0,0,0,.61883,5.25293q1.23624,3.914,8.44405,3.91261h40.7801a17.22459,17.22459,0,0,0,5.3556-.61741q3.80709-1.23624,3.80994-8.44547,0-6.58755-2.78046-8.032a8.24354,8.24354,0,0,0-2.72913-.97815,30.01278,30.01278,0,0,0-3.55329-.154H798.83056V170.57h20.18472a17.23692,17.23692,0,0,0,5.3556-.61741q3.90975-1.23624,3.91261-8.44405,0-6.58968-2.78046-8.03339a8.24369,8.24369,0,0,0-2.72913-.97815,30.0106,30.0106,0,0,0-3.55329-.154h-20.39V141.94127Z" fill="#666"/>
    <path d="M915.3105,126.80415a3.91317,3.91317,0,0,0-2.059-2.42114,11.3954,11.3954,0,0,0-4.83943-.7714H851.15457a11.97992,11.97992,0,0,0-5.25294.92682,3.53,3.53,0,0,0-1.751,2.213,14.30591,14.30591,0,0,0-.51331,4.27478,14.82176,14.82176,0,0,0,.51331,4.32469,3.89841,3.89841,0,0,0,2.059,2.41971,11.40628,11.40628,0,0,0,4.84228.77283h19.77122V190.24a29.96623,29.96623,0,0,0,.154,3.55186,8.327,8.327,0,0,0,.92682,2.6778,4.34574,4.34574,0,0,0,2.6778,2.11172,17.01544,17.01544,0,0,0,5.09893.61741,17.53911,17.53911,0,0,0,5.14742-.61741,4.36109,4.36109,0,0,0,2.72913-2.11172,8.29065,8.29065,0,0,0,.92682-2.62647,28.59405,28.59405,0,0,0,.154-3.50053V138.5434h19.6714a11.99534,11.99534,0,0,0,5.25009-.92682,3.53823,3.53823,0,0,0,1.751-2.21439,14.37039,14.37039,0,0,0,.51617-4.27335A14.90793,14.90793,0,0,0,915.3105,126.80415Z" fill="#666"/>
  </g>
  <path d="M178.52481,174.95338l-67.42323-67.42323a5.99374,5.99374,0,0,0-8.967.541A85.34938,85.34938,0,0,0,88.86644,132.561a5.98213,5.98213,0,0,0,1.4393,6.17527l38.43172,38.43188a36.77477,36.77477,0,0,0,49.61448,2.18905A2.99333,2.99333,0,0,0,178.52481,174.95338Z" fill="#9acf65"/>
  <path d="M178.52481,174.95338l-67.42323-67.42323a5.99374,5.99374,0,0,0-8.967.541A85.34938,85.34938,0,0,0,88.86644,132.561a5.98213,5.98213,0,0,0,1.4393,6.17527l38.43172,38.43188a36.77477,36.77477,0,0,0,49.61448,2.18905A2.99333,2.99333,0,0,0,178.52481,174.95338Z" fill="#8be8e8" opacity="0.7"/>
  <g>
    <path d="M89.75046,149.88436a2.99956,2.99956,0,0,0-5.10482,1.79456,85.75783,85.75783,0,0,0,24.68349,69.7864c.32618.326.6666.62771.9967.94734a36.76029,36.76029,0,0,0,49.10552,1.72563,2.99224,2.99224,0,0,0,.17114-4.40189Z" fill="#8be8e8"/>
    <path d="M197.44759,130.17065l-49.28826-49.2881a5.98213,5.98213,0,0,0-6.17533-1.43929,85.351,85.351,0,0,0-24.48964,13.2682,5.99375,5.99375,0,0,0-.541,8.967l30.70694,30.70693a36.77467,36.77467,0,0,0,49.61442,2.189A2.99332,2.99332,0,0,0,197.44759,130.17065Z" fill="#9acf65"/>
    <path d="M197.44759,130.17065l-49.28826-49.2881a5.98213,5.98213,0,0,0-6.17533-1.43929,85.351,85.351,0,0,0-24.48964,13.2682,5.99375,5.99375,0,0,0-.541,8.967l30.70694,30.70693a36.77467,36.77467,0,0,0,49.61442,2.189A2.99332,2.99332,0,0,0,197.44759,130.17065Z" fill="#8be8e8" opacity="0.3"/>
    <circle cx="190.65885" cy="85.67752" r="18.38555" transform="translate(-4.74047 159.91053) rotate(-45)" fill="#9acf65"/>
  </g>
</svg>
