<svg xmlns="http://www.w3.org/2000/svg" width="800" height="600" viewBox="0 0 800 600">
  <g>
    <g>
      <path d="M154.38176,438.36938a4.94452,4.94452,0,0,1-2.36262-.52559,6.03381,6.03381,0,0,1-1.693-1.33419,8.4025,8.4025,0,0,1-1.21542-1.81429,16.29,16.29,0,0,1-.8364-1.9558l-9.06136-26.138h-1.24069v39.778a20.39294,20.39294,0,0,1-.192,2.86547,5.94614,5.94614,0,0,1-.83387,2.3601,4.41735,4.41735,0,0,1-1.90779,1.62225,8.22306,8.22306,0,0,1-3.45929.59634,10.38945,10.38945,0,0,1-3.91159-.59634,4.788,4.788,0,0,1-2.14532-1.62225,5.37186,5.37186,0,0,1-.90715-2.3601,20.4068,20.4068,0,0,1-.18951-2.86547V397.91922q0-2.05435.11876-4.00762a10.15437,10.15437,0,0,1,.78586-3.482,5.49708,5.49708,0,0,1,2.12257-2.45612,7.64873,7.64873,0,0,1,4.12638-.92989h6.489a26.12022,26.12022,0,0,1,2.74166.12129,4.22377,4.22377,0,0,1,2.07456.8086,7.58953,7.58953,0,0,1,1.885,2.21859,30.48411,30.48411,0,0,1,2.05182,4.3159q1.11814,2.78967,2.59763,7.10556,1.47822,4.321,3.62606,10.61286l1.24069,3.81558h1.14467l1.52623-4.76568q1.95581-6.01143,3.338-10.16308,1.38347-4.1466,2.43338-6.84277a31.81235,31.81235,0,0,1,1.88505-4.14912,6.91526,6.91526,0,0,1,1.76375-2.14784,4.06183,4.06183,0,0,1,2.02655-.8086,24.88085,24.88085,0,0,1,2.67091-.12129h6.96405a7.64874,7.64874,0,0,1,4.12639.92989,5.48176,5.48176,0,0,1,2.12257,2.45612,10.2129,10.2129,0,0,1,.78838,3.482q.11749,1.95579.11876,4.00762v48.46034a20.01919,20.01919,0,0,1-.192,2.86547,5.36873,5.36873,0,0,1-.90462,2.3601,4.78212,4.78212,0,0,1-2.14784,1.62225,10.37165,10.37165,0,0,1-3.9116.59634,8.20248,8.20248,0,0,1-3.45676-.59634,4.40279,4.40279,0,0,1-1.90778-1.62225,5.98776,5.98776,0,0,1-.8364-2.3601,20.4068,20.4068,0,0,1-.18951-2.86547v-39.778h-1.33672l-8.96534,26.138c-.25521.63677-.54328,1.2887-.85914,1.9558a7.80021,7.80021,0,0,1-1.19268,1.81429,6.15451,6.15451,0,0,1-1.67026,1.33419,4.70081,4.70081,0,0,1-2.28935.52559Z" style="fill: #333"/>
      <path d="M237.8696,426.63459q0,.76563-.096,1.789a4.069,4.069,0,0,1-.74037,1.9558,5.07624,5.07624,0,0,1-2.02656,1.597,9.21954,9.21954,0,0,1-3.91159.6671H212.11067v4.57869a10.5207,10.5207,0,0,0,.28806,2.38536,6.93122,6.93122,0,0,0,.97538,2.28935,5.43069,5.43069,0,0,0,1.837,1.71827,5.50626,5.50626,0,0,0,2.81494.6671,7.48244,7.48244,0,0,0,2.9337-.45484,4.63638,4.63638,0,0,0,1.62225-1.11688,10.29131,10.29131,0,0,0,1.07139-1.43526,6.25383,6.25383,0,0,1,1.266-1.43021,6.43353,6.43353,0,0,1,2.19333-1.12193,15.77407,15.77407,0,0,1,6.20094-.25774,5.52177,5.52177,0,0,1,1.97854.71258,3.91683,3.91683,0,0,1,1.38473,1.45547,4.896,4.896,0,0,1,.52559,2.41064,7.26456,7.26456,0,0,1-1.9558,5.175,14.286,14.286,0,0,1-4.91477,3.31526,27.06068,27.06068,0,0,1-6.41572,1.76375,43.37417,43.37417,0,0,1-6.46374.52559,30.70808,30.70808,0,0,1-7.53513-1.00064,17.83135,17.83135,0,0,1-6.31971-3.05751,14.78151,14.78151,0,0,1-4.36643-5.48331,19.15177,19.15177,0,0,1-1.61973-8.29825V424.82029a23.96138,23.96138,0,0,1,1.0714-7.67663,16.76471,16.76471,0,0,1,2.79219-5.25084,13.098,13.098,0,0,1,3.86359-3.26472,19.36132,19.36132,0,0,1,4.34116-1.74354,23.42356,23.42356,0,0,1,4.17187-.71258q1.97853-.144,3.41127-.14656a34.19386,34.19386,0,0,1,8.2275.85914,20.91773,20.91773,0,0,1,5.70062,2.24386,12.34524,12.34524,0,0,1,3.62606,3.194,14.11981,14.11981,0,0,1,2.00381,3.74483,16.89278,16.89278,0,0,1,.85661,3.9116q.18951,1.97853.192,3.69934Zm-25.75893-1.1472H224.035q0-2.23629-.11876-3.98235a7.70945,7.70945,0,0,0-.71511-2.93117,3.97536,3.97536,0,0,0-1.85978-1.8143,8.36541,8.36541,0,0,0-3.60079-.62161,6.38688,6.38688,0,0,0-3.07773.62161,4.4586,4.4586,0,0,0-1.693,1.5515,5.05021,5.05021,0,0,0-.71511,1.98107,13.82325,13.82325,0,0,0-.144,1.85978Z" style="fill: #333"/>
      <path d="M255.54,406.12144v-8.39427a35.39544,35.39544,0,0,1,.21479-3.91159,10.01153,10.01153,0,0,1,.9779-3.41128,6.214,6.214,0,0,1,2.19585-2.43085,6.99911,6.99911,0,0,1,3.86359-.92989,6.90638,6.90638,0,0,1,3.81557.92989,6.07493,6.07493,0,0,1,2.17058,2.43085,10.35009,10.35009,0,0,1,.95263,3.41128,34.78874,34.78874,0,0,1,.21479,3.91159v8.39427h3.9116q1.23942,0,2.48138.12129a5.32358,5.32358,0,0,1,2.21607.69236,4.123,4.123,0,0,1,1.57424,1.71828,6.98074,6.98074,0,0,1,.59634,3.194,6.72836,6.72836,0,0,1-.59634,3.098,4.123,4.123,0,0,1-1.57424,1.71827,5.76044,5.76044,0,0,1-2.21607.73785,17.83375,17.83375,0,0,1-2.48138.17182h-3.9116v16.69252c0,.63677.02527,1.314.07075,2.02655a5.40233,5.40233,0,0,0,.50285,1.98107,3.76911,3.76911,0,0,0,1.28618,1.501,4.22349,4.22349,0,0,0,2.43337.59634,14.33946,14.33946,0,0,1,2.9337.26279,4.53665,4.53665,0,0,1,2.00381.92989,3.96578,3.96578,0,0,1,1.16742,1.85978,10.20806,10.20806,0,0,1,.38155,3.05246,5.971,5.971,0,0,1-.88188,3.29,7.24714,7.24714,0,0,1-2.36009,2.2944,11.208,11.208,0,0,1-3.43655,1.33419,19.2865,19.2865,0,0,1-4.10111.42956,20.39053,20.39053,0,0,1-5.79412-.71763,11.26192,11.26192,0,0,1-4.00762-2.02655,9.72708,9.72708,0,0,1-2.52939-3.14848,15.89136,15.89136,0,0,1-1.3822-4.12385,33.18389,33.18389,0,0,1-.5736-4.93751q-.11751-2.64564-.11877-5.55912V417.57322h-2.6709a17.292,17.292,0,0,1-2.45612-.17182,5.54385,5.54385,0,0,1-2.17058-.73785,4.17175,4.17175,0,0,1-1.549-1.71827,6.72835,6.72835,0,0,1-.59635-3.098,6.98072,6.98072,0,0,1,.59635-3.194,4.17178,4.17178,0,0,1,1.549-1.71828,5.12244,5.12244,0,0,1,2.17058-.69236q1.21669-.12129,2.45612-.12129Z" style="fill: #333"/>
      <path d="M329.35751,443.04409q0,2.00129-.144,3.93181a9.8222,9.8222,0,0,1-.85913,3.46182,5.84292,5.84292,0,0,1-2.14532,2.45612,7.35792,7.35792,0,0,1-4.00762.92988,7.98461,7.98461,0,0,1-4.10111-.8844,5.92051,5.92051,0,0,1-2.19585-2.14784,7.04887,7.04887,0,0,1-.88188-2.64311,20.12282,20.12282,0,0,1-.16677-2.33988,15.23418,15.23418,0,0,1-1.21543,2.81493,9.99763,9.99763,0,0,1-5.00826,4.4574,10.3429,10.3429,0,0,1-4.07837.7429,16.83134,16.83134,0,0,1-5.24831-.85913,12.348,12.348,0,0,1-4.72272-2.86042,14.87979,14.87979,0,0,1-3.40875-5.22557,21.1266,21.1266,0,0,1-1.31145-7.93943V423.102a21.278,21.278,0,0,1,1.31145-7.99,14.6066,14.6066,0,0,1,3.40875-5.19525,12.48771,12.48771,0,0,1,4.72272-2.8402,16.83136,16.83136,0,0,1,5.24831-.85914,10.63259,10.63259,0,0,1,4.07837.71763,9.882,9.882,0,0,1,2.98171,1.85978,10.15751,10.15751,0,0,1,2.02655,2.57741,14.63138,14.63138,0,0,1,1.21543,2.86042,10.21065,10.21065,0,0,1,.66709-3.96213,6.91006,6.91006,0,0,1,1.71827-2.50161,5.8082,5.8082,0,0,1,2.3601-1.2887,9.88864,9.88864,0,0,1,2.60015-.35882,6.9436,6.9436,0,0,1,3.81558.92989,6.01889,6.01889,0,0,1,2.17058,2.43591,10.39267,10.39267,0,0,1,.95516,3.482,37.75936,37.75936,0,0,1,.21478,4.02784ZM304.55374,435.696c0,.85913.03032,1.70311.096,2.52687a7.0258,7.0258,0,0,0,.52307,2.24386,3.69479,3.69479,0,0,0,1.26343,1.597,3.91293,3.91293,0,0,0,2.31462.59635,5.10177,5.10177,0,0,0,3.02971-.83387,5.44232,5.44232,0,0,0,1.83451-2.57741,17.10989,17.10989,0,0,0,.92989-4.38665q.26154-2.64564.31081-6.32223a25.68934,25.68934,0,0,0-.2628-3.40623,16.01086,16.01086,0,0,0-.92989-3.65385,8.32322,8.32322,0,0,0-1.85977-2.9059,4.13981,4.13981,0,0,0-3.05246-1.19269,3.913,3.913,0,0,0-2.31462.59634,3.76322,3.76322,0,0,0-1.26343,1.54645,6.50333,6.50333,0,0,0-.52307,2.17311c-.0657.8086-.096,1.6273-.096,2.45612Z" style="fill: #333"/>
      <path d="M373.6182,453.82372a7.0425,7.0425,0,0,1-3.86359-.92988,6.18075,6.18075,0,0,1-2.19585-2.45612,10.26616,10.26616,0,0,1-.9779-3.46182,35.97169,35.97169,0,0,1-.21478-3.93181V424.1532c0-.85914-.04043-1.70311-.11877-2.52687a6.91375,6.91375,0,0,0-.54833-2.19333,3.778,3.778,0,0,0-1.26343-1.5515,3.82168,3.82168,0,0,0-2.26661-.59634,4.03247,4.03247,0,0,0-3.10047,1.28871,9.06323,9.06323,0,0,0-1.885,3.50224,25.09344,25.09344,0,0,0-.95263,5.22557q-.26153,3.00192-.26279,6.489v9.2534a35.35151,35.35151,0,0,1-.21479,3.93181,10.55282,10.55282,0,0,1-.95263,3.46182,6.045,6.045,0,0,1-2.17058,2.45612,8.69212,8.69212,0,0,1-7.82319,0,6.00872,6.00872,0,0,1-2.17059-2.45612,10.6161,10.6161,0,0,1-.95515-3.46182,35.97521,35.97521,0,0,1-.21226-3.93181v-26.143c0-1.33419.05306-2.64311.16677-3.93182a10.16675,10.16675,0,0,1,.88188-3.46181,5.80029,5.80029,0,0,1,2.17058-2.45612,7.47315,7.47315,0,0,1,4.03036-.92989,7.90646,7.90646,0,0,1,4.07837.88441,5.95643,5.95643,0,0,1,2.17059,2.14784,6.70586,6.70586,0,0,1,.85661,2.64311,23.25228,23.25228,0,0,1,.144,2.33988,11.46346,11.46346,0,0,1,1.35946-2.81494,10.90335,10.90335,0,0,1,2.36009-2.57741,12.72226,12.72226,0,0,1,3.29252-1.88,11.09953,11.09953,0,0,1,4.14912-.7429,13.18826,13.18826,0,0,1,6.10745,1.52623,13.00875,13.00875,0,0,1,5.05374,4.96278,8.14249,8.14249,0,0,1,2.09983-2.84021,12.92738,12.92738,0,0,1,3.14848-2.02655,16.97837,16.97837,0,0,1,3.76757-1.21289,19.75052,19.75052,0,0,1,3.95961-.40936,16.81581,16.81581,0,0,1,5.24578.85914,12.34793,12.34793,0,0,1,4.72273,2.86042,14.84957,14.84957,0,0,1,3.41127,5.22557,21.13623,21.13623,0,0,1,1.31145,7.94448v20.033a32.02227,32.02227,0,0,1-.23753,3.93181,10.64,10.64,0,0,1-1.00316,3.46182,6.13789,6.13789,0,0,1-2.21607,2.45612,7.18293,7.18293,0,0,1-3.88886.92988,7.2683,7.2683,0,0,1-3.93434-.92988,6.12582,6.12582,0,0,1-2.21859-2.45612,10.20841,10.20841,0,0,1-.9779-3.46182,35.35394,35.35394,0,0,1-.21478-3.93181V424.1532a21.83235,21.83235,0,0,0-.144-2.52687,7.33906,7.33906,0,0,0-.57108-2.19333,3.70179,3.70179,0,0,0-1.2887-1.5515,3.92456,3.92456,0,0,0-2.28935-.59634,3.77266,3.77266,0,0,0-2.60015.95516,7.30356,7.30356,0,0,0-1.789,2.62289,17.43441,17.43441,0,0,0-1.09666,3.98235,45.12424,45.12424,0,0,0-.52307,5.03353v13.165a35.97418,35.97418,0,0,1-.21478,3.93181,10.26616,10.26616,0,0,1-.9779,3.46182,6.14412,6.14412,0,0,1-2.21859,2.45612A7.27425,7.27425,0,0,1,373.6182,453.82372Z" style="fill: #333"/>
      <path d="M416.32233,424.05718a20.53221,20.53221,0,0,1,1.19268-7.43911,16.09357,16.09357,0,0,1,3.07773-5.10428,14.28119,14.28119,0,0,1,4.19713-3.199,23.03807,23.03807,0,0,1,4.55595-1.71322,23.99454,23.99454,0,0,1,4.1744-.71763q1.92926-.144,3.02719-.14151,1.09918,0,3.00445.14151a22.52224,22.52224,0,0,1,4.07837.71763,21.38931,21.38931,0,0,1,4.38917,1.71322,13.55635,13.55635,0,0,1,4.00762,3.199,16.42978,16.42978,0,0,1,2.9337,5.10428,21.275,21.275,0,0,1,1.14467,7.43911V435.888a21.25538,21.25538,0,0,1-1.14467,7.43911,16.42978,16.42978,0,0,1-2.9337,5.10428,13.55667,13.55667,0,0,1-4.00762,3.199,21.38989,21.38989,0,0,1-4.38917,1.71322,22.52311,22.52311,0,0,1-4.07837.71763q-1.90653.144-3.00445.1415-1.09541,0-3.02719-.1415a23.99548,23.99548,0,0,1-4.1744-.71763,23.03869,23.03869,0,0,1-4.55595-1.71322,14.28153,14.28153,0,0,1-4.19713-3.199,16.09357,16.09357,0,0,1-3.07773-5.10428,20.51327,20.51327,0,0,1-1.19268-7.43911Zm14.69123,15.17133a5.03844,5.03844,0,0,0,.66962,2.43085,4.84013,4.84013,0,0,0,1.645,1.693,5.82508,5.82508,0,0,0,3.21924.73784,5.37825,5.37825,0,0,0,3.07773-.73784,4.97684,4.97684,0,0,0,1.597-1.693,5.84879,5.84879,0,0,0,.66709-2.43085V421.95987a7.06939,7.06939,0,0,0-.66709-2.62289,5.90154,5.90154,0,0,0-1.597-1.789,4.92644,4.92644,0,0,0-3.07773-.83387,5.324,5.324,0,0,0-3.21924.83387,5.68966,5.68966,0,0,0-1.645,1.789,6.03708,6.03708,0,0,0-.66962,2.62289Z" style="fill: #333"/>
      <path d="M497.38184,413.27754q0,3.72209-1.837,5.43783a7.34636,7.34636,0,0,1-5.22305,1.71827c-.31586,0-.77069.02527-1.35945.07076a8.909,8.909,0,0,0-1.88252.379,9.75489,9.75489,0,0,0-2.02656.90967,7.09655,7.09655,0,0,0-1.885,1.62225,7.85643,7.85643,0,0,0-1.38473,2.59763,12.017,12.017,0,0,0-.52306,3.77009v13.64a33.02978,33.02978,0,0,1-.21478,3.81558,9.4129,9.4129,0,0,1-.9779,3.31525,6.12466,6.12466,0,0,1-2.19333,2.3601,7.14839,7.14839,0,0,1-3.86358.90967,6.79313,6.79313,0,0,1-3.7701-.90967,6.03876,6.03876,0,0,1-2.12257-2.3601,9.66989,9.66989,0,0,1-.95263-3.31525,33.02978,33.02978,0,0,1-.21478-3.81558v-26.709a34.16882,34.16882,0,0,1,.21478-3.89138,9.96242,9.96242,0,0,1,.95263-3.36074,5.83746,5.83746,0,0,1,2.12257-2.3601,6.93119,6.93119,0,0,1,3.7701-.88441,5.75794,5.75794,0,0,1,3.74229,1.07645,6.28712,6.28712,0,0,1,1.93306,2.7644,12.62142,12.62142,0,0,1,.7151,3.77009q.09477,2.06951.096,4.02783h.76311a23.295,23.295,0,0,1,1.76376-4.84148,17.36745,17.36745,0,0,1,2.43337-3.67407,10.34454,10.34454,0,0,1,2.86295-2.30956,6.45013,6.45013,0,0,1,3.05246-.81366,9.47643,9.47643,0,0,1,3.02719.4043,3.84965,3.84965,0,0,1,1.837,1.26849,4.92692,4.92692,0,0,1,.90715,2.19333A18.44184,18.44184,0,0,1,497.38184,413.27754Z" style="fill: #333"/>
      <path d="M506.49879,416.90108q0-2.00128.14151-3.93182a9.822,9.822,0,0,1,.85914-3.46181,5.8487,5.8487,0,0,1,2.14784-2.45612,7.34836,7.34836,0,0,1,4.00509-.92989,8.05272,8.05272,0,0,1,4.10364.88441,5.91242,5.91242,0,0,1,2.19332,2.14784,7.00435,7.00435,0,0,1,.88188,2.64311,20.12282,20.12282,0,0,1,.16677,2.33988,15.39944,15.39944,0,0,1,1.218-2.81494,9.99763,9.99763,0,0,1,5.00826-4.4574,10.32569,10.32569,0,0,1,4.07837-.7429,16.81581,16.81581,0,0,1,5.24578.85914,12.34782,12.34782,0,0,1,4.72272,2.86042,14.88418,14.88418,0,0,1,3.41128,5.22557,21.13623,21.13623,0,0,1,1.31145,7.94448v13.8321a21.278,21.278,0,0,1-1.31145,7.99,14.61088,14.61088,0,0,1-3.41128,5.19524,12.42375,12.42375,0,0,1-4.72272,2.84021,16.8158,16.8158,0,0,1-5.24578.85913,10.61453,10.61453,0,0,1-4.07837-.71763,9.81945,9.81945,0,0,1-2.98171-1.85978,10.16591,10.16591,0,0,1-2.02655-2.57235,14.81681,14.81681,0,0,1-1.218-2.86547V462.026a36.89446,36.89446,0,0,1-.21478,4.0531,10.31477,10.31477,0,0,1-.95263,3.46182,5.94364,5.94364,0,0,1-2.21859,2.43085,7.359,7.359,0,0,1-3.95961.92988,6.90642,6.90642,0,0,1-3.81558-.92988,6.05644,6.05644,0,0,1-2.17058-2.43085,10.31454,10.31454,0,0,1-.95263-3.46182,36.89442,36.89442,0,0,1-.21479-4.0531Zm24.80378,7.34814c0-.85914-.03285-1.70311-.096-2.52687a6.9595,6.9595,0,0,0-.52558-2.24386,3.72456,3.72456,0,0,0-1.26344-1.597,3.90451,3.90451,0,0,0-2.31209-.59634,5.09649,5.09649,0,0,0-3.02972.83387,5.42888,5.42888,0,0,0-1.837,2.57741,17.18255,17.18255,0,0,0-.92989,4.41192q-.26154,2.66836-.31081,6.297a26.08364,26.08364,0,0,0,.2628,3.45676,15.96822,15.96822,0,0,0,.92989,3.6488,8.05657,8.05657,0,0,0,1.85977,2.88569,4.18751,4.18751,0,0,0,3.055,1.16741,3.90444,3.90444,0,0,0,2.31209-.59634,3.76322,3.76322,0,0,0,1.26344-1.54644,6.44309,6.44309,0,0,0,.52558-2.17311q.09477-1.2129.096-2.45612Z" style="fill: #333"/>
      <path d="M597.12252,443.04409a35.35151,35.35151,0,0,1-.21479,3.93181,10.55282,10.55282,0,0,1-.95263,3.46182,6.0268,6.0268,0,0,1-2.17058,2.45612,7.15428,7.15428,0,0,1-3.9116.92988,7.2683,7.2683,0,0,1-3.93434-.92988,6.31991,6.31991,0,0,1-2.24386-2.45612,10.23575,10.23575,0,0,1-1.02338-3.46182,32.02222,32.02222,0,0,1-.24-3.93181V424.24922c0-.82881-.03033-1.64752-.096-2.45612a6.50309,6.50309,0,0,0-.52306-2.17311,3.76322,3.76322,0,0,0-1.26343-1.54645,3.91833,3.91833,0,0,0-2.31462-.59634,4.06242,4.06242,0,0,0-3.10047,1.26344,8.824,8.824,0,0,0-1.885,3.482,24.9911,24.9911,0,0,0-.95263,5.24578q-.26153,3.03225-.26279,6.50922v9.06642a35.35394,35.35394,0,0,1-.21478,3.93181,10.26638,10.26638,0,0,1-.9779,3.46182,6.07448,6.07448,0,0,1-2.24134,2.45612,7.5076,7.5076,0,0,1-4.00762.92988,7.15424,7.15424,0,0,1-3.91159-.92988,6.02675,6.02675,0,0,1-2.17059-2.45612,10.615,10.615,0,0,1-.95263-3.46182,35.35394,35.35394,0,0,1-.21478-3.93181V397.8232a35.44529,35.44529,0,0,1,.21478-3.93687,10.5498,10.5498,0,0,1,.95263-3.45676,6.02675,6.02675,0,0,1,2.17059-2.45612,7.11043,7.11043,0,0,1,3.91159-.92989,7.46132,7.46132,0,0,1,4.00762.92989,6.07448,6.07448,0,0,1,2.24134,2.45612,10.204,10.204,0,0,1,.9779,3.45676,35.44529,35.44529,0,0,1,.21478,3.93687v16.31348a14.41189,14.41189,0,0,1,1.24069-2.81494,10.11816,10.11816,0,0,1,2.09731-2.57741,10.9217,10.9217,0,0,1,3.02972-1.88,10.19482,10.19482,0,0,1,4.03036-.7429,16.64535,16.64535,0,0,1,5.27105.88441,12.33345,12.33345,0,0,1,4.72272,2.88568,14.935,14.935,0,0,1,3.386,5.27106,21.64,21.64,0,0,1,1.31145,8.03545Z" style="fill: #333"/>
      <path d="M608.99123,416.81011a34.65943,34.65943,0,0,1,.21479-3.9116,9.94556,9.94556,0,0,1,.9779-3.41127,6.20612,6.20612,0,0,1,2.19332-2.43591,8.49132,8.49132,0,0,1,7.72717,0,6.21252,6.21252,0,0,1,2.19586,2.43591,9.94578,9.94578,0,0,1,.9779,3.41127,35.26162,35.26162,0,0,1,.21478,3.9116v26.33a35.97418,35.97418,0,0,1-.21478,3.93181,9.99057,9.99057,0,0,1-.9779,3.43655,6.0291,6.0291,0,0,1-2.19586,2.40558,8.65962,8.65962,0,0,1-7.72717,0,6.02286,6.02286,0,0,1-2.19332-2.40558,9.99035,9.99035,0,0,1-.9779-3.43655,35.35392,35.35392,0,0,1-.21479-3.93181Zm14.59521-22.51443q0,3.669-1.90778,5.45805a8.86953,8.86953,0,0,1-10.68362,0q-1.91031-1.789-1.90779-5.45805,0-3.82062,1.90779-5.53385a7.69178,7.69178,0,0,1,5.34181-1.71827q3.67281,0,5.46057,1.71827Q623.58644,390.47506,623.58644,394.29568Z" style="fill: #333"/>
      <path d="M649.71935,437.3182a16.30353,16.30353,0,0,0,.144,1.93053,7.51156,7.51156,0,0,0,.6671,2.28934,5.30723,5.30723,0,0,0,1.5515,1.93559,4.3732,4.3732,0,0,0,2.78966.8086,9.1014,9.1014,0,0,0,3.29-.47505,3.75612,3.75612,0,0,0,1.76628-1.314,4.38532,4.38532,0,0,0,.71511-1.9558,18.5025,18.5025,0,0,0,.144-2.36009,5.32975,5.32975,0,0,1,.21478-1.405,3.00644,3.00644,0,0,1,1.02338-1.48074,6.45388,6.45388,0,0,1,2.41064-1.1472,16.82838,16.82838,0,0,1,4.36391-.44978,10.53181,10.53181,0,0,1,3.91159.57107,5.03514,5.03514,0,0,1,2.02656,1.35945,3.14123,3.14123,0,0,1,.74037,1.62226,12.4446,12.4446,0,0,1,.096,1.30892,14.27956,14.27956,0,0,1-.93242,5.36707,12.74974,12.74974,0,0,1-2.50412,4.00762,14.60627,14.60627,0,0,1-3.62354,2.8402,20.67979,20.67979,0,0,1-4.36391,1.80924,29.3534,29.3534,0,0,1-4.7.95516,38.20071,38.20071,0,0,1-4.57869.28806,26.62387,26.62387,0,0,1-7.2976-1.00064,18.15393,18.15393,0,0,1-6.27423-3.14848,15.85068,15.85068,0,0,1-4.41191-5.51363,18.006,18.006,0,0,1-1.66774-8.08094V424.91631a24.01634,24.01634,0,0,1,1.07139-7.68169,16.79238,16.79238,0,0,1,2.7922-5.24578,13.02269,13.02269,0,0,1,3.86358-3.26472,19.36158,19.36158,0,0,1,4.34117-1.74354,22.977,22.977,0,0,1,4.17186-.71258q1.97854-.144,3.41128-.14656a33.799,33.799,0,0,1,7.41637.71763,22.58179,22.58179,0,0,1,5.4631,1.90526,14.762,14.762,0,0,1,3.7903,2.74419,13.19035,13.19035,0,0,1,2.36263,3.26977,14.10159,14.10159,0,0,1,1.21542,3.43149,15.67408,15.67408,0,0,1,.35882,3.199q0,.75805-.096,1.789a4.06894,4.06894,0,0,1-.74038,1.95579,5.07614,5.07614,0,0,1-2.02655,1.597,9.21956,9.21956,0,0,1-3.91159.66709c-.60393,0-1.35946-.02527-2.26408-.07075a10.245,10.245,0,0,1-2.64816-.50032,5.51394,5.51394,0,0,1-2.19333-1.33924,3.4646,3.4646,0,0,1-.90714-2.57236,20.34177,20.34177,0,0,0-.11877-2.21859,3.7109,3.7109,0,0,0-2.43337-3.199,8.53449,8.53449,0,0,0-3.26725-.50032,5.70447,5.70447,0,0,0-2.78966.57612,4.04587,4.04587,0,0,0-1.5515,1.43021,4.85067,4.85067,0,0,0-.6671,1.80924,11.67308,11.67308,0,0,0-.144,1.71828Z" style="fill: #333"/>
    </g>
    <g>
      <path d="M382.64617,127.8754a69.73414,69.73414,0,0,0-15.59715,4.91672c4.4399,1.35937,8.85257,2.57823,13.534,4.05176,8.33534,2.62214,17.95673,7.44315,29.02837,12.37042,11.3386,5.04669,22.214,8.35467,30.5761,11.60556,2.50754.97474,4.92375,1.881,7.32943,2.753C429.12325,139.791,406.72047,123.2511,382.64617,127.8754Z" style="fill: #9ef7ea"/>
      <path d="M429.12259,324.49264a189.11611,189.11611,0,0,0-20.03-10.03894,169.40317,169.40317,0,0,0-29.24922-8.69539c-9.83126-2.097-19.83069-3.44233-28.966-4.91762a121.11086,121.11086,0,0,0-18.8353-1.21536c13.82814,14.64218,33.463,23.16193,53.54835,26.83873,1.79317.2573,3.56966.56026,5.34834.86146a135.77526,135.77526,0,0,0,13.88608,1.29263A64.7825,64.7825,0,0,0,429.12259,324.49264Z" style="fill: #54b2f5"/>
      <path d="M467.21462,253.10661c-8.60186-1.405-16.85114-2.86188-26.38691-7.23328-9.53577-4.37052-19.42587-10.9127-29.26328-16.29836-9.83741-5.38478-19.75165-9.61128-29.13989-10.226-11.008-.72008-22.5661-.973-33.95957-2.025-10.63476-.98177-21.21859-2.82412-31.3111-7.1121Q315.15171,220.39,313.99126,231.477c9.82643,3.329,20.21224,4.288,30.60682,4.49348,10.95792.216,22.01023-.28451,32.44126-.19757,9.945.08343,19.85132,3.54332,29.52716,8.52064,9.67583,4.97644,19.21116,11.46329,28.57964,17.00263,9.36848,5.54021,17.3732,8.05609,26.67758,10.02489,6.172,1.30493,12.70323,2.313,19.70774,3.8375a68.43755,68.43755,0,0,0,5.08838-18.70534C479.513,254.89276,473.283,254.09892,467.21462,253.10661Z" style="fill: #61d9fa"/>
      <path d="M342.98046,160.48173c9.523,2.21556,19.29677,2.51062,28.81848,3.06473,9.52171.55324,18.83091,1.3023,27.49995,4.02367,8.6967,2.731,17.44828,7.88925,26.354,13.36887s17.97781,11.36845,27.33,15.07773a51.409,51.409,0,0,0,16.8788,3.15518c-1.9811-3.83485-4.07591-7.62843-6.24888-11.38689a49.96341,49.96341,0,0,1-6.39421-1.7036c-9.39614-3.315-17.90009-8.24578-26.64377-13.09928a194.80834,194.80834,0,0,0-27.85429-13.15548,120.29672,120.29672,0,0,0-28.04792-6.19619c-9.12874-1.0327-18.1284-1.593-27.25846-3.95517-.83248-.216-1.60656-.54533-2.42016-.79911a83.50374,83.50374,0,0,0-7.88572,9.77285A47.7704,47.7704,0,0,0,342.98046,160.48173Z" style="fill: #9ef7ea"/>
      <path d="M474.66079,208.88155c-9.18012.23358-17.515-.4303-24.75488-3.35628-9.32764-3.77075-18.55079-9.84926-27.58865-15.38157-9.03786-5.53319-17.94269-10.67384-26.55289-12.91926-8.8293-2.3025-18.44146-2.81885-28.16163-3.40721-9.72061-.58748-19.65769-1.14774-29.24307-3.86648a54.12773,54.12773,0,0,1-6.63613-2.37187,128.79622,128.79622,0,0,0-9.03783,21.22824c.4821.20988.92688.42063,1.4283.63051,10.58252,4.41531,21.67479,6.02759,32.72052,7.06117s22.07083,1.43226,32.68671,2.89261c9.13708,1.25663,18.67592,6.00827,28.34736,11.5116,9.67189,5.50245,19.49481,11.85319,29.08238,15.66609,9.588,3.81466,18.4463,4.951,27.94562,5.708,3.18854.25378,6.45172.48649,9.7632.77277-.42459-1.41908-.89659-2.83553-1.44148-4.2467C480.72043,222.33471,477.83836,215.62569,474.66079,208.88155Z" style="fill: #61d9fa"/>
      <path d="M458.16582,284.64865a77.00334,77.00334,0,0,1-27.01829-12.222c-9.2394-6.37971-18.51-12.81827-28.06154-17.49175s-19.42675-7.67323-29.78621-7.2605c-9.974.39867-20.57841,1.6509-31.15917,2.15846-9.89228.47507-19.79818.28627-29.14471-2.018a79.32294,79.32294,0,0,0,4.98877,29.49861c4.9457.00878,9.95024-.28715,14.92449-.67968,10.27955-.81316,20.58193-2.14969,29.903-2.06714a81.22513,81.22513,0,0,1,29.71683,6.39992,139.78994,139.78994,0,0,1,28.06944,15.82592,96.21764,96.21764,0,0,0,27.186,13.71047c1.42391.47156,2.91983.90185,4.38809,1.34619a95.86694,95.86694,0,0,0,22.36365-23.69757C468.834,286.95466,463.34819,285.93513,458.16582,284.64865Z" style="fill: #54b2f5"/>
      <path d="M406.22435,154.05287c-10.3015-4.2871-19.8-8.0482-28.36844-10.10832-7.22932-1.73785-14.06962-3.03136-21.1681-5.19687-1.58373,1.09241-3.13058,2.23751-4.62386,3.46428,8.29188,2.49569,16.25884,3.57493,24.59067,5.17666a158.3876,158.3876,0,0,1,28.217,8.6831c10.39722,4.14221,20.43792,8.20538,29.11047,12.38886,7.99507,3.85681,15.57784,7.52219,24.134,10.276-1.07354-1.68428-2.12687-3.38964-3.23729-5.03352-6.54-2.21117-12.53462-4.8579-18.91258-7.682C427.35777,162.21,416.896,158.49452,406.22435,154.05287Z" style="fill: #9ef7ea"/>
      <path d="M443.48462,317.45345a189.9966,189.9966,0,0,1-27.2115-13.75876,145.92736,145.92736,0,0,0-28.51377-13.23364,116.89979,116.89979,0,0,0-29.42178-5.96788c-9.21831-.60592-19.25988.29769-29.41386.90975q-3.49983.21075-7.01856.353c.86937,1.57188,1.75673,3.12268,2.73323,4.598.67968-.03161,1.36288-.04917,2.04124-.08167,10.07582-.48209,20.01992-1.10381,29.11749-.21864a159.22206,159.22206,0,0,1,29.26766,5.5973,151.36826,151.36826,0,0,1,28.76405,11.682c8.69626,4.63661,16.34182,8.78232,25.12063,12.86394,1.607-.829,3.19249-1.7238,4.76261-2.659C443.63961,317.5079,443.55706,317.48331,443.48462,317.45345Z" style="fill: #54b2f5"/>
      <path d="M471.66855,241.43082c-8.65455-1.2136-17.083-2.54136-26.7026-6.3929-9.61919-3.85242-19.60369-10.32522-29.45076-15.83821s-19.58832-10.14784-28.83649-11.04442c-11.09667-1.07573-22.53625-1.37255-33.92358-2.50887-11.11159-1.1091-22.19464-3.02961-32.75169-7.75051-.41185,1.5508-.789,3.14024-1.167,4.73143,10.30019,4.655,21.11014,6.64756,31.986,7.73032,11.44,1.13983,22.9516,1.32073,34.18394,2.19888,9.27758.72272,19.05177,5.33737,28.93792,10.8688,9.8857,5.53055,19.90182,12.07623,29.49071,15.96115,9.58846,3.88491,18.10162,5.15119,26.54234,6.48158,5.37688.84742,10.86176,1.6237,17.03116,2.94618-.01668-1.6992-.10318-3.40017-.27179-5.10552C481.42122,242.71291,476.49527,242.10874,471.66855,241.43082Z" style="fill: #61d9fa"/>
    </g>
  </g>
</svg>
