<?xml version="1.0" encoding="UTF-8"?>
<svg id="Layer_1" data-name="Layer 1" xmlns="http://www.w3.org/2000/svg" viewBox="0 0 800 600">
  <defs>
    <style>
      .cls-1 {
        opacity: .3;
      }

      .cls-1, .cls-2, .cls-3, .cls-4, .cls-5 {
        stroke-width: 0px;
      }

      .cls-1, .cls-3, .cls-4 {
        fill: #8be8e8;
      }

      .cls-2 {
        fill: #666;
      }

      .cls-4 {
        opacity: .7;
      }

      .cls-5 {
        fill: #9acf65;
      }
    </style>
  </defs>
  <g>
    <path class="cls-2" d="M284.43,406.13c-.68-1.32-2.58-1.98-5.68-1.98s-5.07.66-5.9,1.98c-2.78,3.52-8.33,10.77-16.64,21.77l-16.64-21.84-.44-.44c-.29-.34-.92-.67-1.87-.99-.95-.32-2.09-.48-3.41-.48-3.08,0-4.98.64-5.72,1.91-.39.73-.62,1.38-.7,1.94-.07.56-.11,1.4-.11,2.53v40.68c0,1.17.04,2.05.11,2.64s.3,1.22.7,1.91c.73,1.32,2.59,1.98,5.57,1.98s4.98-.66,5.72-1.98c.39-.68.62-1.31.7-1.87.07-.56.11-1.4.11-2.53v-24.7c.24.29,1.81,2.43,4.69,6.41,2.88,3.98,4.81,6.58,5.79,7.81l.59.81c.39.49,1.04.99,1.94,1.5.9.51,1.91.77,3.01.77s2.12-.28,3.08-.84c.95-.56,1.55-1,1.8-1.32.24-.32.68-.89,1.32-1.72.64-.83,2.12-2.9,4.47-6.19,2.34-3.3,4.13-5.7,5.35-7.22v24.55c0,1.71.12,2.98.37,3.81.25.64.59,1.12,1.03,1.47.44.34,1.07.64,1.91.88.83.24,1.95.37,3.37.37s2.59-.15,3.52-.44c1.86-.59,2.79-2.56,2.79-5.94v-40.67c0-1.12-.04-1.98-.11-2.57-.07-.59-.3-1.25-.7-1.98Z"/>
    <path class="cls-2" d="M316.97,403.42c-3.37,0-6.64.68-9.82,2.05-3.18,1.37-5.99,3.25-8.43,5.64-2.44,2.39-4.4,5.36-5.86,8.9-1.47,3.54-2.2,7.34-2.2,11.4,0,7.43,2.6,13.83,7.8,19.2,5.2,5.38,11.52,8.06,18.95,8.06s13.68-2.72,18.76-8.17c5.08-5.45,7.62-12.04,7.62-19.79s-2.66-14.23-7.99-19.46-11.6-7.84-18.84-7.84ZM326.65,441.75c-2.78,2.64-5.91,3.96-9.38,3.96s-6.61-1.36-9.42-4.07c-2.81-2.71-4.22-6.24-4.22-10.59s1.39-7.88,4.18-10.59c2.78-2.71,5.91-4.07,9.38-4.07s6.61,1.34,9.42,4.03c2.81,2.69,4.22,6.26,4.22,10.7s-1.39,7.99-4.18,10.63Z"/>
    <path class="cls-2" d="M379.33,428.04c-1.86-.88-3.88-1.62-6.08-2.24-2.2-.61-4.23-1.06-6.08-1.36s-3.41-.85-4.65-1.69c-1.24-.83-1.87-1.92-1.87-3.26s.52-2.39,1.57-3.15c1.05-.76,2.37-1.14,3.96-1.14s2.89.32,3.92.95c.34.24.72.56,1.14.95.41.39.69.64.84.73,1.51.98,2.78,1.47,3.81,1.47,1.76,0,3.47-1.22,5.13-3.66,1.17-1.71,1.76-3.05,1.76-4.03s-.75-2.17-2.27-3.59l-1.83-1.39c-.93-.78-2.6-1.55-5.02-2.31-2.42-.76-5.09-1.14-8.03-1.14-5.52,0-9.88,1.6-13.08,4.8-3.2,3.2-4.8,6.95-4.8,11.25,0,3.13.62,5.8,1.87,8.02,1.25,2.22,2.8,3.85,4.65,4.87s3.86,1.92,6.01,2.67c2.15.76,4.15,1.31,6.01,1.65,1.86.34,3.41.89,4.65,1.65,1.25.76,1.87,1.7,1.87,2.82,0,3.71-2.27,5.57-6.82,5.57-1.08,0-2.25-.38-3.52-1.14-1.27-.76-2.25-1.55-2.93-2.38-2.44-2.44-4.35-3.66-5.72-3.66s-2.66.59-3.88,1.76c-2.1,2.05-3.15,3.7-3.15,4.95s.63,2.65,1.9,4.21l.66.81c1.03,1.47,2.83,2.98,5.42,4.54,1.27.83,2.93,1.53,4.98,2.09s4.23.84,6.52.84c4.49,0,8.72-1.29,12.68-3.88,2.05-1.32,3.71-3.19,4.98-5.61,1.27-2.42,1.91-5.21,1.91-8.39s-.63-5.85-1.87-8.02c-1.25-2.17-2.8-3.7-4.65-4.58Z"/>
    <path class="cls-2" d="M421.57,428.04c-1.86-.88-3.88-1.62-6.08-2.24s-4.23-1.06-6.08-1.36c-1.86-.29-3.41-.85-4.65-1.69s-1.87-1.92-1.87-3.26.52-2.39,1.57-3.15c1.05-.76,2.37-1.14,3.96-1.14s2.9.32,3.92.95c.34.24.72.56,1.14.95.41.39.7.64.84.73,1.51.98,2.78,1.47,3.81,1.47,1.76,0,3.47-1.22,5.13-3.66,1.17-1.71,1.76-3.05,1.76-4.03s-.76-2.17-2.27-3.59l-1.83-1.39c-.93-.78-2.6-1.55-5.02-2.31-2.42-.76-5.09-1.14-8.03-1.14-5.52,0-9.88,1.6-13.08,4.8-3.2,3.2-4.8,6.95-4.8,11.25,0,3.13.62,5.8,1.87,8.02,1.25,2.22,2.8,3.85,4.65,4.87s3.86,1.92,6.01,2.67c2.15.76,4.15,1.31,6.01,1.65,1.86.34,3.41.89,4.65,1.65,1.25.76,1.87,1.7,1.87,2.82,0,3.71-2.27,5.57-6.82,5.57-1.08,0-2.25-.38-3.52-1.14-1.27-.76-2.25-1.55-2.93-2.38-2.44-2.44-4.35-3.66-5.72-3.66s-2.66.59-3.88,1.76c-2.1,2.05-3.15,3.7-3.15,4.95s.63,2.65,1.91,4.21l.66.81c1.02,1.47,2.83,2.98,5.42,4.54,1.27.83,2.93,1.53,4.98,2.09,2.05.56,4.23.84,6.52.84,4.5,0,8.72-1.29,12.68-3.88,2.05-1.32,3.71-3.19,4.98-5.61,1.27-2.42,1.91-5.21,1.91-8.39s-.62-5.85-1.87-8.02c-1.25-2.17-2.8-3.7-4.65-4.58Z"/>
    <g>
      <path class="cls-2" d="M472.31,447.5c-.73-.37-1.91-.55-3.52-.55h-19.93v-36.35c0-1.71-.12-2.98-.37-3.81-.64-1.81-2.66-2.71-6.08-2.71-3.13,0-5.03.66-5.72,1.98-.39.73-.62,1.38-.7,1.94-.07.56-.11,1.4-.11,2.53v40.75c0,1.71.15,2.96.44,3.74.59,1.86,2.59,2.78,6.01,2.78h26.38c1.61,0,2.88-.24,3.81-.73.59-.29,1-.83,1.25-1.61.24-.78.37-1.82.37-3.12s-.12-2.33-.37-3.11c-.25-.78-.73-1.36-1.47-1.72Z"/>
      <path class="cls-2" d="M513.36,417.05c1.71,0,2.98-.15,3.81-.44,1.81-.59,2.71-2.59,2.71-6.01,0-3.13-.66-5.03-1.98-5.72-.73-.39-1.38-.62-1.94-.7s-1.4-.11-2.53-.11h-28.87c-2.59,0-4.35.45-5.28,1.36-.93.9-1.39,2.6-1.39,5.09v40.75c0,1.71.15,2.96.44,3.74.59,1.86,2.59,2.78,6.01,2.78h29.02c1.71,0,2.98-.15,3.81-.44,1.81-.59,2.71-2.59,2.71-6.01,0-3.13-.66-5.03-1.98-5.72-.73-.39-1.38-.62-1.94-.7s-1.4-.11-2.53-.11h-22.57v-7.4h14.37c1.71,0,2.98-.15,3.81-.44,1.85-.59,2.78-2.59,2.78-6.01,0-3.13-.66-5.03-1.98-5.72-.73-.39-1.38-.62-1.94-.7s-1.4-.11-2.53-.11h-14.51v-7.4h22.5Z"/>
      <path class="cls-2" d="M573.76,406.28c-.25-.78-.73-1.36-1.47-1.72s-1.88-.55-3.44-.55h-40.75c-1.61,0-2.86.22-3.74.66-.59.29-1,.82-1.25,1.57-.25.76-.37,1.77-.37,3.04s.12,2.3.37,3.08c.24.78.73,1.36,1.47,1.72.73.37,1.88.55,3.45.55h14.07v36.79c0,1.12.04,1.97.11,2.53.07.56.29,1.2.66,1.91.37.71,1,1.21,1.91,1.5.9.29,2.11.44,3.63.44s2.74-.15,3.66-.44,1.58-.79,1.94-1.5c.37-.71.59-1.33.66-1.87.07-.54.11-1.37.11-2.49v-36.86h14c1.61,0,2.86-.22,3.74-.66.59-.29,1-.82,1.25-1.58.24-.76.37-1.77.37-3.04s-.12-2.3-.37-3.08Z"/>
    </g>
  </g>
  <g>
    <path class="cls-5" d="M439.1,270.75l-81.05-81.05c-3.06-3.06-8.13-2.77-10.78.65-7.03,9.06-12.35,19.02-15.95,29.44-.9,2.6-.21,5.48,1.73,7.42l46.2,46.2c16.34,16.34,42.28,17.21,59.64,2.63,1.61-1.35,1.7-3.81.21-5.29Z"/>
    <path class="cls-4" d="M439.1,270.75l-81.05-81.05c-3.06-3.06-8.13-2.77-10.78.65-7.03,9.06-12.35,19.02-15.95,29.44-.9,2.6-.21,5.48,1.73,7.42l46.2,46.2c16.34,16.34,42.28,17.21,59.64,2.63,1.61-1.35,1.7-3.81.21-5.29Z"/>
    <g>
      <path class="cls-3" d="M332.38,240.61c-2.14-2.14-5.82-.85-6.14,2.16-3.14,29.93,6.74,60.96,29.67,83.89.39.39.8.75,1.2,1.14,16.37,15.77,41.88,16.48,59.03,2.07,1.61-1.35,1.69-3.81.21-5.29l-83.97-83.97Z"/>
      <path class="cls-5" d="M461.85,216.91l-59.25-59.25c-1.94-1.94-4.83-2.63-7.42-1.73-10.42,3.6-20.38,8.92-29.44,15.95-3.42,2.65-3.71,7.72-.65,10.78l36.91,36.91c16.34,16.34,42.28,17.21,59.64,2.63,1.61-1.35,1.7-3.81.21-5.29Z"/>
      <path class="cls-1" d="M461.85,216.91l-59.25-59.25c-1.94-1.94-4.83-2.63-7.42-1.73-10.42,3.6-20.38,8.92-29.44,15.95-3.42,2.65-3.71,7.72-.65,10.78l36.91,36.91c16.34,16.34,42.28,17.21,59.64,2.63,1.61-1.35,1.7-3.81.21-5.29Z"/>
      <circle class="cls-5" cx="453.69" cy="163.42" r="22.1" transform="translate(17.32 368.67) rotate(-45)"/>
    </g>
  </g>
</svg>