<?xml version="1.0" standalone="no"?>
<!DOCTYPE svg PUBLIC "-//W3C//DTD SVG 20010904//EN"
 "http://www.w3.org/TR/2001/REC-SVG-20010904/DTD/svg10.dtd">
<svg version="1.0" xmlns="http://www.w3.org/2000/svg"
 width="800.000000pt" height="800.000000pt" viewBox="0 0 800.000000 800.000000"
 preserveAspectRatio="xMidYMid meet">
<metadata>
Created by potrace 1.14, written by Peter Selinger 2001-2017
</metadata>
<g transform="translate(0.000000,800.000000) scale(0.100000,-0.100000)"
fill="#000000" stroke="none">
<path d="M5398 6755 c-2 -1 -21 -5 -43 -8 -201 -28 -407 -207 -468 -407 -24
-82 -28 -99 -31 -173 -8 -173 55 -332 183 -457 420 -414 1116 -61 1036 526 -3
24 -10 55 -15 69 -5 14 -8 25 -5 25 8 0 -38 96 -71 148 -83 130 -240 239 -386
267 -36 7 -194 15 -200 10z"/>
<path d="M3899 6366 c-2 -2 -17 -6 -34 -9 -91 -15 -432 -173 -596 -278 -143
-91 -265 -185 -289 -224 -13 -21 -25 -59 -28 -84 -9 -99 -12 -96 601 -707 494
-492 574 -568 662 -626 174 -115 328 -173 545 -204 53 -7 262 -8 287 0 10 3
38 8 63 11 188 25 497 172 591 281 23 26 31 68 19 98 -14 37 -1685 1705 -1725
1722 -36 15 -90 26 -96 20z"/>
<path d="M2605 5464 c-50 -18 -79 -46 -148 -143 -132 -183 -260 -417 -344
-628 -55 -139 -62 -215 -25 -274 11 -19 335 -347 719 -730 730 -727 747 -743
920 -829 176 -87 336 -124 543 -124 273 0 500 72 722 231 90 65 115 105 99
156 -8 22 -352 372 -1158 1178 -632 631 -1158 1152 -1170 1158 -35 18 -114 20
-158 5z"/>
<path d="M1987 4023 c-43 -22 -55 -59 -63 -189 -20 -360 15 -673 112 -1007 98
-336 290 -702 511 -977 104 -129 268 -295 363 -366 214 -161 470 -243 747
-239 261 4 485 76 691 222 98 70 112 87 112 140 l0 46 -1189 1188 c-693 693
-1196 1189 -1207 1190 -11 0 -26 2 -34 3 -8 1 -27 -4 -43 -11z"/>
</g>
</svg>
